<svg width="14" height="14" viewBox="0 0 14 14" fill="none" xmlns="http://www.w3.org/2000/svg">
<g clip-path="url(#clip0_353_52)">
<path d="M7 14C6.5382 14 6.11285 13.8846 5.72396 13.6536C5.34722 13.4349 5.0434 13.1372 4.8125 12.7604C4.59375 12.3715 4.48438 11.9462 4.48438 11.4843C4.48438 10.901 4.61805 10.415 4.88542 10.026C5.15278 9.63718 5.56597 9.18141 6.125 8.65886C6.5382 8.28212 6.74479 7.92358 6.74479 7.58331V7.25522H6.41667C6.03993 7.25522 5.52343 7.63196 4.86718 8.38544C4.22309 9.13892 3.43923 9.51559 2.51563 9.51559C2.05382 9.51559 1.62847 9.40625 1.23958 9.1875C0.862848 8.95657 0.559028 8.65277 0.328125 8.27603C0.109375 7.88718 0 7.46179 0 7C0 6.5382 0.109375 6.11892 0.328125 5.74218C0.559028 5.3533 0.862848 5.04948 1.23958 4.83073C1.62847 4.59983 2.05382 4.48438 2.51563 4.48438C3.42708 4.48438 4.20486 4.85503 4.84896 5.59635C5.49305 6.33767 6.01563 6.70833 6.41667 6.70833H6.74479V6.41667C6.74479 6.07639 6.5382 5.71788 6.125 5.34115L5.70573 4.95833C5.40191 4.67882 5.1224 4.34462 4.86718 3.95573C4.61198 3.55468 4.48438 3.07465 4.48438 2.51563C4.48438 2.05382 4.59375 1.63455 4.8125 1.25782C5.0434 0.868924 5.34722 0.565104 5.72396 0.346354C6.11285 0.115451 6.5382 0 7 0C7.46179 0 7.88109 0.115451 8.25783 0.346354C8.64668 0.577256 8.95055 0.881076 9.1693 1.25782C9.40016 1.63455 9.51559 2.05382 9.51559 2.51563C9.51559 3.42708 9.14494 4.20486 8.40364 4.84896C7.66234 5.49305 7.29169 6.01563 7.29169 6.41667V6.70833H7.58331C7.99652 6.70833 8.51907 6.33767 9.15103 5.59635C9.77081 4.85503 10.5486 4.48438 11.4844 4.48438C11.9462 4.48438 12.3654 4.59983 12.7422 4.83073C13.1311 5.04948 13.4349 5.34722 13.6536 5.72396C13.8846 6.1007 14 6.52604 14 7C14 7.46179 13.8846 7.88718 13.6536 8.27603C13.4349 8.65277 13.1311 8.95657 12.7422 9.1875C12.3654 9.40625 11.9462 9.51559 11.4844 9.51559C10.9132 9.51559 10.421 9.37587 10.0078 9.09636C9.6068 8.81685 9.15712 8.40973 8.65886 7.875C8.28212 7.46179 7.92358 7.25522 7.58331 7.25522H7.29169V7.58331C7.29169 8.03299 7.66234 8.55554 8.40364 9.15103C9.14494 9.74652 9.51559 10.5243 9.51559 11.4843C9.51559 11.9462 9.40016 12.3715 9.1693 12.7604C8.95055 13.1372 8.65277 13.4349 8.27603 13.6536C7.89929 13.8846 7.47397 14 7 14Z" fill="white"/>
</g>
<defs>
<clipPath id="clip0_353_52">
<rect width="14" height="14" fill="white"/>
</clipPath>
</defs>
</svg>
