<svg width="20" height="20" viewBox="0 0 20 20" fill="none" xmlns="http://www.w3.org/2000/svg">
<g clip-path="url(#clip0_353_91)">
<path d="M6.20266 4.45837C6.73516 4.45837 7.22766 4.50004 7.67766 4.62337C8.08601 4.69841 8.47579 4.8524 8.82516 5.07671C9.1535 5.28254 9.39933 5.57171 9.56266 5.94254C9.72683 6.31337 9.8085 6.76754 9.8085 7.26171C9.8085 7.83921 9.686 8.33337 9.39933 8.70421C9.1535 9.07587 8.7435 9.40504 8.25183 9.65254C8.9485 9.85921 9.481 10.23 9.8085 10.7242C10.1368 11.2192 10.3418 11.8375 10.3418 12.5384C10.3418 13.1159 10.2185 13.61 10.0135 14.0225C9.8085 14.435 9.481 14.8059 9.11183 15.0534C8.71082 15.3187 8.26753 15.5137 7.801 15.63C7.30933 15.7542 6.81766 15.8367 6.326 15.8367H0.833496V4.45837H6.20266ZM5.87433 9.07504C6.32516 9.07504 6.69433 8.95171 6.981 8.74587C7.26766 8.54004 7.391 8.16837 7.391 7.71504C7.391 7.46754 7.34933 7.22004 7.26766 7.05587C7.186 6.89087 7.06266 6.76671 6.89933 6.64337C6.73516 6.56087 6.571 6.47837 6.366 6.43754C6.161 6.39587 5.95683 6.39587 5.71016 6.39587H3.3335V9.07587H5.87516L5.87433 9.07504ZM5.99766 13.94C6.2435 13.94 6.48933 13.8984 6.69433 13.8575C6.90131 13.8182 7.09706 13.7337 7.26766 13.61C7.43465 13.4894 7.57435 13.3349 7.67766 13.1567C7.75933 12.9509 7.84183 12.7034 7.84183 12.415C7.84183 11.8375 7.67766 11.425 7.35016 11.1367C7.02183 10.8892 6.571 10.7659 6.0385 10.7659H3.3335V13.9409H5.99766V13.94ZM13.9077 13.8984C14.2352 14.2284 14.7268 14.3934 15.3827 14.3934C15.8335 14.3934 16.2435 14.27 16.571 14.0642C16.8993 13.8167 17.1043 13.5692 17.186 13.3217H19.1943C18.866 14.3109 18.3743 15.0117 17.7193 15.465C17.0627 15.8775 16.2843 16.125 15.3418 16.125C14.7388 16.1269 14.1408 16.0149 13.5793 15.795C13.0741 15.6055 12.6235 15.294 12.2677 14.8884C11.8871 14.5089 11.6057 14.0415 11.4485 13.5275C11.2435 12.9917 11.161 12.415 11.161 11.755C11.161 11.1367 11.2435 10.56 11.4485 10.0234C11.6456 9.50678 11.9372 9.03144 12.3085 8.62171C12.6777 8.25087 13.1285 7.92171 13.6202 7.71504C14.1674 7.49509 14.752 7.38304 15.3418 7.38504C16.0385 7.38504 16.6535 7.50921 17.186 7.79754C17.7193 8.08587 18.1285 8.41587 18.4568 8.91087C18.7918 9.38632 19.0413 9.91646 19.1943 10.4775C19.276 11.0542 19.3168 11.6317 19.276 12.2909H13.3335C13.3335 12.9509 13.5793 13.5692 13.9077 13.8992V13.8984ZM16.4893 9.57004C16.2027 9.28171 15.7518 9.11671 15.2185 9.11671C14.8502 9.11671 14.5627 9.19921 14.3168 9.32254C14.071 9.44671 13.9077 9.61171 13.7435 9.77671C13.5926 9.93609 13.4928 10.1369 13.4568 10.3534C13.4152 10.56 13.3743 10.7242 13.3743 10.8892H17.0627C16.981 10.2709 16.776 9.85921 16.4893 9.57004ZM12.8827 5.24171H17.4727V6.35504H12.8835V5.24171H12.8827Z" fill="white"/>
</g>
<defs>
<clipPath id="clip0_353_91">
<rect width="20" height="20" fill="white"/>
</clipPath>
</defs>
</svg>
