<svg width="37" height="38" viewBox="0 0 37 38" fill="none" xmlns="http://www.w3.org/2000/svg">
<g clip-path="url(#clip0_367_14)">
<path fill-rule="evenodd" clip-rule="evenodd" d="M23.1147 1.69566L19.6209 16.5277L27.6381 3.56938C27.8866 3.16805 28.4441 3.10326 28.7778 3.43696L34.212 8.87114C34.5457 9.20484 34.481 9.76248 34.0796 10.0108L21.1213 18.0281L35.9533 14.5343C36.4127 14.4261 36.8528 14.7746 36.8528 15.2465V22.9316C36.8528 23.4036 36.4127 23.7521 35.9533 23.6438L21.1213 20.15L34.0796 28.1674C34.481 28.4157 34.5457 28.9732 34.212 29.3071L28.7778 34.7411C28.4441 35.0748 27.8866 35.01 27.6381 34.6087L19.6209 21.6504L23.1147 36.4824C23.223 36.9418 22.8743 37.3819 22.4025 37.3819H14.7174C14.2455 37.3819 13.897 36.9418 14.0052 36.4824L17.499 21.6504L9.48168 34.6087C9.23339 35.01 8.67573 35.0748 8.34203 34.7411L2.90787 29.3069C2.57417 28.9732 2.63896 28.4157 3.04029 28.1672L15.9985 20.15L1.16658 23.6438C0.707227 23.7521 0.26709 23.4036 0.26709 22.9316V15.2465C0.26709 14.7746 0.707225 14.4261 1.16658 14.5343L15.9986 18.0281L3.04029 10.0108C2.63896 9.7625 2.57417 9.20484 2.90787 8.87114L8.34203 3.43697C8.67573 3.10328 9.23339 3.16807 9.48168 3.5694L17.499 16.5277L14.0052 1.69567C13.897 1.23632 14.2455 0.796181 14.7174 0.796181L22.4025 0.796181C22.8745 0.796181 23.223 1.23632 23.1147 1.69566ZM18.5599 21.1797C19.7146 21.1797 20.6506 20.2437 20.6506 19.089C20.6506 17.9344 19.7146 16.9984 18.5599 16.9984C17.4053 16.9984 16.4693 17.9344 16.4693 19.089C16.4693 20.2437 17.4053 21.1797 18.5599 21.1797Z" fill="white"/>
</g>
<defs>
<clipPath id="clip0_367_14">
<rect width="36.5857" height="36.5857" fill="white" transform="translate(0.26709 0.796181)"/>
</clipPath>
</defs>
</svg>
