<svg width="20" height="20" viewBox="0 0 20 20" fill="none" xmlns="http://www.w3.org/2000/svg">
<g clip-path="url(#clip0_353_81)">
<path d="M16.6573 9.64329C16.589 8.33155 16.1328 7.06963 15.3465 6.01746C15.1069 6.27548 14.8508 6.51766 14.5798 6.74246C13.7473 7.434 12.8169 7.99845 11.819 8.41746C11.9582 8.70913 12.0857 8.99163 12.1982 9.25829V9.26079C12.2299 9.3353 12.2605 9.41031 12.2898 9.48579C13.5515 9.34413 14.8815 9.39579 16.1707 9.56996C16.3423 9.59329 16.504 9.61829 16.6573 9.64329ZM8.8365 3.43496C9.64862 4.57927 10.3975 5.76716 11.0798 6.99329C12.099 6.59163 12.9415 6.08496 13.6198 5.52079C13.8553 5.32674 14.0769 5.1165 14.2832 4.89163C13.084 3.88306 11.5668 3.33107 9.99984 3.33329C9.60987 3.33303 9.22061 3.36676 8.8365 3.43413V3.43496ZM3.544 8.33079C4.11169 8.31647 4.67871 8.28228 5.244 8.22829C6.61037 8.10608 7.96507 7.87704 9.29567 7.54329C8.60026 6.33514 7.84946 5.15972 7.04567 4.02079C6.1871 4.44612 5.43005 5.05113 4.82587 5.79478C4.2217 6.53843 3.78452 7.40332 3.544 8.33079ZM4.819 14.1958C5.14234 13.7233 5.56734 13.1916 6.1315 12.6133C7.34317 11.3716 8.77317 10.405 10.4282 9.87163L10.4798 9.85663C10.3423 9.55329 10.2132 9.28246 10.0832 9.02746C8.55317 9.47329 6.9415 9.75163 5.33567 9.89579C4.55234 9.96663 3.84984 9.99746 3.33317 10.0025C3.3317 11.5296 3.85675 13.0106 4.81984 14.1958H4.819ZM12.504 16.1791C12.1826 14.5585 11.7278 12.9672 11.144 11.4216C9.47567 12.0275 8.1465 12.9133 7.119 13.97C6.70434 14.3886 6.33635 14.851 6.0215 15.3491C7.17051 16.2065 8.56623 16.6687 9.99984 16.6666C10.8581 16.6679 11.7085 16.5029 12.504 16.1808V16.1791ZM14.0648 15.2833C15.3659 14.2831 16.2522 12.838 16.554 11.225C16.2707 11.1541 15.9115 11.0833 15.5165 11.0283C14.6383 10.9018 13.7472 10.8926 12.8665 11.0008C13.3624 12.3998 13.7628 13.8309 14.0648 15.2841V15.2833ZM9.99984 18.3333C5.39734 18.3333 1.6665 14.6025 1.6665 9.99996C1.6665 5.39746 5.39734 1.66663 9.99984 1.66663C14.6023 1.66663 18.3332 5.39746 18.3332 9.99996C18.3332 14.6025 14.6023 18.3333 9.99984 18.3333Z" fill="white"/>
</g>
<defs>
<clipPath id="clip0_353_81">
<rect width="20" height="20" fill="white"/>
</clipPath>
</defs>
</svg>
