<svg width="40" height="40" viewBox="0 0 40 40" fill="none" xmlns="http://www.w3.org/2000/svg">
<circle cx="20" cy="20" r="20" fill="#1D1D1D"/>
<g clip-path="url(#clip0_1423_25534)">
<path d="M28.4683 14.7133C27.8321 14.9947 27.1574 15.1795 26.4666 15.2616C27.1947 14.8261 27.7397 14.1408 27.9999 13.3333C27.3166 13.7399 26.5674 14.0249 25.7866 14.1791C25.2621 13.6179 24.5669 13.2457 23.8091 13.1204C23.0512 12.9951 22.2732 13.1237 21.596 13.4861C20.9187 13.8486 20.3802 14.4247 20.0642 15.1248C19.7481 15.8249 19.6722 16.6098 19.8483 17.3574C18.4625 17.288 17.1069 16.9279 15.8693 16.3005C14.6318 15.6731 13.54 14.7925 12.6649 13.7158C12.3552 14.2478 12.1924 14.8526 12.1933 15.4683C12.1933 16.6766 12.8083 17.7441 13.7433 18.3691C13.1899 18.3517 12.6488 18.2023 12.1649 17.9333V17.9766C12.1651 18.7814 12.4436 19.5613 12.9531 20.1842C13.4627 20.807 14.172 21.2345 14.9608 21.3941C14.4471 21.5333 13.9085 21.5538 13.3858 21.4541C13.6081 22.1468 14.0416 22.7526 14.6254 23.1867C15.2092 23.6208 15.9142 23.8614 16.6416 23.8749C15.9187 24.4427 15.0909 24.8624 14.2057 25.1101C13.3204 25.3577 12.395 25.4285 11.4824 25.3183C13.0755 26.3428 14.93 26.8867 16.8241 26.8849C23.2349 26.8849 26.7408 21.5741 26.7408 16.9683C26.7408 16.8183 26.7366 16.6666 26.7299 16.5183C27.4123 16.0251 28.0013 15.4141 28.4691 14.7141L28.4683 14.7133Z" fill="white"/>
</g>
<defs>
<clipPath id="clip0_1423_25534">
<rect width="20" height="20" fill="white" transform="translate(10 10)"/>
</clipPath>
</defs>
</svg>
