<svg width="33" height="33" viewBox="0 0 33 33" fill="none" xmlns="http://www.w3.org/2000/svg">
<path d="M16.2716 9.73677L18.7465 7.26189C19.2571 6.75078 19.8634 6.34528 20.5308 6.06857C21.1982 5.79185 21.9136 5.64934 22.6361 5.64917C23.3586 5.649 24.074 5.79118 24.7415 6.06759C25.4091 6.34399 26.0156 6.74921 26.5265 7.26008C27.0373 7.77096 27.4425 8.37748 27.719 9.045C27.9954 9.71252 28.1375 10.428 28.1374 11.1505C28.1372 11.8729 27.9947 12.5883 27.718 13.2557C27.4413 13.9231 27.0358 14.5294 26.5246 15.0401L22.9891 18.5756C22.4784 19.0863 21.8721 19.4915 21.2048 19.7679C20.5375 20.0443 19.8223 20.1865 19.1 20.1865C18.3778 20.1865 17.6626 20.0443 16.9953 19.7679C16.328 19.4915 15.7217 19.0863 15.2109 18.5756" stroke="#141414" stroke-width="2" stroke-linecap="round" stroke-linejoin="round"/>
<path d="M17.6861 23.8789L15.2112 26.3538C14.7006 26.8649 14.0942 27.2704 13.4268 27.5471C12.7595 27.8239 12.0441 27.9664 11.3216 27.9665C10.5991 27.9667 9.88367 27.8245 9.21615 27.5481C8.54862 27.2717 7.9421 26.8665 7.43122 26.3556C6.92035 25.8448 6.51514 25.2382 6.23873 24.5707C5.96232 23.9032 5.82014 23.1878 5.82031 22.4653C5.82048 21.7428 5.96299 21.0274 6.23971 20.36C6.51643 19.6926 6.92192 19.0863 7.43304 18.5756L10.9686 15.0401C11.4793 14.5294 12.0856 14.1243 12.7529 13.8479C13.4202 13.5715 14.1354 13.4292 14.8577 13.4292C15.5799 13.4292 16.2951 13.5715 16.9624 13.8479C17.6297 14.1243 18.236 14.5294 18.7467 15.0401" stroke="#141414" stroke-width="2" stroke-linecap="round" stroke-linejoin="round"/>
</svg>
