<svg width="40" height="40" viewBox="0 0 40 40" fill="none" xmlns="http://www.w3.org/2000/svg">
<circle cx="20" cy="20" r="20" fill="#1D1D1D"/>
<g clip-path="url(#clip0_1423_25536)">
<path d="M16.2027 14.4585C16.7352 14.4585 17.2277 14.5002 17.6777 14.6235C18.086 14.6985 18.4758 14.8525 18.8252 15.0768C19.1535 15.2827 19.3993 15.5718 19.5627 15.9427C19.7268 16.3135 19.8085 16.7677 19.8085 17.2618C19.8085 17.8393 19.686 18.3335 19.3993 18.7043C19.1535 19.076 18.7435 19.4052 18.2518 19.6527C18.9485 19.8593 19.481 20.2302 19.8085 20.7243C20.1368 21.2193 20.3418 21.8377 20.3418 22.5385C20.3418 23.116 20.2185 23.6102 20.0135 24.0227C19.8085 24.4352 19.481 24.806 19.1118 25.0535C18.7108 25.3188 18.2675 25.5138 17.801 25.6302C17.3093 25.7543 16.8177 25.8368 16.326 25.8368H10.8335V14.4585H16.2027ZM15.8743 19.0752C16.3252 19.0752 16.6943 18.9518 16.981 18.746C17.2677 18.5402 17.391 18.1685 17.391 17.7152C17.391 17.4677 17.3493 17.2202 17.2677 17.056C17.186 16.891 17.0627 16.7668 16.8993 16.6435C16.7352 16.561 16.571 16.4785 16.366 16.4377C16.161 16.396 15.9568 16.396 15.7102 16.396H13.3335V19.076H15.8752L15.8743 19.0752ZM15.9977 23.9402C16.2435 23.9402 16.4893 23.8985 16.6943 23.8577C16.9013 23.8183 17.0971 23.7338 17.2677 23.6102C17.4346 23.4895 17.5744 23.3351 17.6777 23.1568C17.7593 22.951 17.8418 22.7035 17.8418 22.4152C17.8418 21.8377 17.6777 21.4252 17.3502 21.1368C17.0218 20.8893 16.571 20.766 16.0385 20.766H13.3335V23.941H15.9977V23.9402ZM23.9077 23.8985C24.2352 24.2285 24.7268 24.3935 25.3827 24.3935C25.8335 24.3935 26.2435 24.2702 26.571 24.0643C26.8993 23.8168 27.1043 23.5693 27.186 23.3218H29.1943C28.866 24.311 28.3743 25.0118 27.7193 25.4652C27.0627 25.8777 26.2843 26.1252 25.3418 26.1252C24.7388 26.127 24.1408 26.015 23.5793 25.7952C23.0741 25.6056 22.6235 25.2942 22.2677 24.8885C21.8871 24.509 21.6057 24.0416 21.4485 23.5277C21.2435 22.9918 21.161 22.4152 21.161 21.7552C21.161 21.1368 21.2435 20.5602 21.4485 20.0235C21.6456 19.5069 21.9372 19.0316 22.3085 18.6218C22.6777 18.251 23.1285 17.9218 23.6202 17.7152C24.1674 17.4952 24.752 17.3832 25.3418 17.3852C26.0385 17.3852 26.6535 17.5093 27.186 17.7977C27.7193 18.086 28.1285 18.416 28.4568 18.911C28.7918 19.3864 29.0413 19.9166 29.1943 20.4777C29.276 21.0543 29.3168 21.6318 29.276 22.291H23.3335C23.3335 22.951 23.5793 23.5693 23.9077 23.8993V23.8985ZM26.4893 19.5702C26.2027 19.2818 25.7518 19.1168 25.2185 19.1168C24.8502 19.1168 24.5627 19.1993 24.3168 19.3227C24.071 19.4468 23.9077 19.6118 23.7435 19.7768C23.5926 19.9362 23.4928 20.137 23.4568 20.3535C23.4152 20.5602 23.3743 20.7243 23.3743 20.8893H27.0627C26.981 20.271 26.776 19.8593 26.4893 19.5702ZM22.8827 15.2418H27.4727V16.3552H22.8835V15.2418H22.8827Z" fill="white"/>
</g>
<defs>
<clipPath id="clip0_1423_25536">
<rect width="20" height="20" fill="white" transform="translate(10 10)"/>
</clipPath>
</defs>
</svg>
