<svg width="40" height="40" viewBox="0 0 40 40" fill="none" xmlns="http://www.w3.org/2000/svg">
<circle cx="20" cy="20" r="20" fill="#1D1D1D"/>
<g clip-path="url(#clip0_1423_25537)">
<path d="M15.7835 14.1665C15.7833 14.6086 15.6075 15.0324 15.2948 15.3448C14.9821 15.6572 14.5581 15.8326 14.116 15.8324C13.674 15.8321 13.2502 15.6563 12.9378 15.3436C12.6254 15.0309 12.45 14.6069 12.4502 14.1649C12.4504 13.7228 12.6262 13.299 12.9389 12.9866C13.2517 12.6742 13.6757 12.4988 14.1177 12.499C14.5597 12.4992 14.9836 12.6751 15.296 12.9878C15.6084 13.3005 15.7838 13.7245 15.7835 14.1665ZM15.8335 17.0665H12.5002V27.4999H15.8335V17.0665ZM21.1002 17.0665H17.7835V27.4999H21.0669V22.0249C21.0669 18.9749 25.0419 18.6915 25.0419 22.0249V27.4999H28.3335V20.8915C28.3335 15.7499 22.4502 15.9415 21.0669 18.4665L21.1002 17.0665Z" fill="white"/>
</g>
<defs>
<clipPath id="clip0_1423_25537">
<rect width="20" height="20" fill="white" transform="translate(10 10)"/>
</clipPath>
</defs>
</svg>
