<svg width="40" height="40" viewBox="0 0 40 40" fill="none" xmlns="http://www.w3.org/2000/svg">
<circle cx="20" cy="20" r="20" fill="#1D1D1D"/>
<g clip-path="url(#clip0_1423_25535)">
<path d="M26.6573 19.6432C26.589 18.3314 26.1328 17.0695 25.3465 16.0173C25.1069 16.2754 24.8508 16.5175 24.5798 16.7423C23.7473 17.4339 22.8169 17.9983 21.819 18.4173C21.9582 18.709 22.0857 18.9915 22.1982 19.2582V19.2607C22.2299 19.3352 22.2605 19.4102 22.2898 19.4857C23.5515 19.344 24.8815 19.3957 26.1707 19.5698C26.3423 19.5932 26.504 19.6182 26.6573 19.6432ZM18.8365 13.4348C19.6486 14.5791 20.3975 15.767 21.0798 16.9932C22.099 16.5915 22.9415 16.0848 23.6198 15.5207C23.8553 15.3266 24.0769 15.1164 24.2832 14.8915C23.084 13.8829 21.5668 13.3309 19.9998 13.3332C19.6099 13.3329 19.2206 13.3666 18.8365 13.434V13.4348ZM13.544 18.3307C14.1117 18.3163 14.6787 18.2822 15.244 18.2282C16.6104 18.106 17.9651 17.8769 19.2957 17.5432C18.6003 16.335 17.8495 15.1596 17.0457 14.0207C16.1871 14.446 15.4301 15.051 14.8259 15.7947C14.2217 16.5383 13.7845 17.4032 13.544 18.3307ZM14.819 24.1957C15.1423 23.7232 15.5673 23.1915 16.1315 22.6132C17.3432 21.3715 18.7732 20.4048 20.4282 19.8715L20.4798 19.8565C20.3423 19.5532 20.2132 19.2823 20.0832 19.0273C18.5532 19.4732 16.9415 19.7515 15.3357 19.8957C14.5523 19.9665 13.8498 19.9973 13.3332 20.0023C13.3317 21.5295 13.8567 23.0105 14.8198 24.1957H14.819ZM22.504 26.179C22.1826 24.5584 21.7278 22.9671 21.144 21.4215C19.4757 22.0273 18.1465 22.9132 17.119 23.9698C16.7043 24.3885 16.3364 24.8509 16.0215 25.349C17.1705 26.2063 18.5662 26.6685 19.9998 26.6665C20.8581 26.6677 21.7085 26.5028 22.504 26.1807V26.179ZM24.0648 25.2832C25.3659 24.283 26.2522 22.8379 26.554 21.2248C26.2707 21.154 25.9115 21.0832 25.5165 21.0282C24.6383 20.9017 23.7472 20.8925 22.8665 21.0007C23.3624 22.3997 23.7628 23.8308 24.0648 25.284V25.2832ZM19.9998 28.3332C15.3973 28.3332 11.6665 24.6023 11.6665 19.9998C11.6665 15.3973 15.3973 11.6665 19.9998 11.6665C24.6023 11.6665 28.3332 15.3973 28.3332 19.9998C28.3332 24.6023 24.6023 28.3332 19.9998 28.3332Z" fill="white"/>
</g>
<defs>
<clipPath id="clip0_1423_25535">
<rect width="20" height="20" fill="white" transform="translate(10 10)"/>
</clipPath>
</defs>
</svg>
