<svg width="179" height="28" viewBox="0 0 179 28" fill="none" xmlns="http://www.w3.org/2000/svg">
<path d="M37.1378 7.90909H40.5511L44.1562 16.7045H44.3097L47.9148 7.90909H51.3281V21H48.6435V12.4794H48.5348L45.147 20.9361H43.3189L39.9311 12.4474H39.8224V21H37.1378V7.90909ZM55.6849 21H52.719L57.2381 7.90909H60.8049L65.3177 21H62.3518L59.0727 10.9006H58.9704L55.6849 21ZM55.4995 15.8544H62.5052V18.0149H55.4995V15.8544ZM66.7133 21V7.90909H69.4811V13.3104H75.0997V7.90909H77.8611V21H75.0997V15.5923H69.4811V21H66.7133ZM79.963 7.90909H83.3764L86.9815 16.7045H87.1349L90.74 7.90909H94.1534V21H91.4687V12.4794H91.36L87.9723 20.9361H86.1441L82.7563 12.4474H82.6477V21H79.963V7.90909ZM104.34 7.90909H107.107V16.4105C107.107 17.3651 106.879 18.2003 106.423 18.9162C105.972 19.6321 105.339 20.1903 104.525 20.5909C103.711 20.9872 102.763 21.1854 101.681 21.1854C100.594 21.1854 99.6436 20.9872 98.8297 20.5909C98.0158 20.1903 97.383 19.6321 96.9313 18.9162C96.4796 18.2003 96.2537 17.3651 96.2537 16.4105V7.90909H99.0215V16.174C99.0215 16.6726 99.1301 17.1158 99.3475 17.5036C99.5691 17.8913 99.8801 18.196 100.281 18.4176C100.681 18.6392 101.148 18.75 101.681 18.75C102.217 18.75 102.684 18.6392 103.08 18.4176C103.481 18.196 103.79 17.8913 104.007 17.5036C104.229 17.1158 104.34 16.6726 104.34 16.174V7.90909ZM113.845 21H109.205V7.90909H113.884C115.2 7.90909 116.334 8.17116 117.284 8.69531C118.234 9.2152 118.965 9.96307 119.477 10.9389C119.992 11.9148 120.25 13.0824 120.25 14.4418C120.25 15.8054 119.992 16.9773 119.477 17.9574C118.965 18.9375 118.23 19.6896 117.271 20.2138C116.317 20.7379 115.175 21 113.845 21ZM111.972 18.6286H113.73C114.548 18.6286 115.237 18.4837 115.795 18.1939C116.357 17.8999 116.779 17.446 117.06 16.8324C117.346 16.2145 117.489 15.4176 117.489 14.4418C117.489 13.4744 117.346 12.6839 117.06 12.0703C116.779 11.4567 116.359 11.005 115.801 10.7152C115.243 10.4254 114.555 10.2805 113.737 10.2805H111.972V18.6286ZM137.056 7.90909V21H134.665L128.97 12.7607H128.874V21H126.106V7.90909H128.535L134.186 16.142H134.301V7.90909H137.056ZM141.93 7.90909V21H139.163V7.90909H141.93ZM144.028 21V7.90909H146.795V18.718H152.408V21H144.028ZM165.581 14.4545C165.581 15.8821 165.31 17.0966 164.769 18.098C164.232 19.0994 163.499 19.8643 162.57 20.3928C161.645 20.9169 160.605 21.179 159.451 21.179C158.287 21.179 157.243 20.9148 156.318 20.3864C155.394 19.858 154.663 19.093 154.126 18.0916C153.589 17.0902 153.321 15.8778 153.321 14.4545C153.321 13.027 153.589 11.8125 154.126 10.8111C154.663 9.80966 155.394 9.04687 156.318 8.52273C157.243 7.99432 158.287 7.73011 159.451 7.73011C160.605 7.73011 161.645 7.99432 162.57 8.52273C163.499 9.04687 164.232 9.80966 164.769 10.8111C165.31 11.8125 165.581 13.027 165.581 14.4545ZM162.774 14.4545C162.774 13.5298 162.636 12.75 162.359 12.1151C162.086 11.4801 161.701 10.9986 161.202 10.6705C160.703 10.3423 160.12 10.1783 159.451 10.1783C158.781 10.1783 158.198 10.3423 157.699 10.6705C157.201 10.9986 156.813 11.4801 156.536 12.1151C156.263 12.75 156.127 13.5298 156.127 14.4545C156.127 15.3793 156.263 16.1591 156.536 16.794C156.813 17.429 157.201 17.9105 157.699 18.2386C158.198 18.5668 158.781 18.7308 159.451 18.7308C160.12 18.7308 160.703 18.5668 161.202 18.2386C161.701 17.9105 162.086 17.429 162.359 16.794C162.636 16.1591 162.774 15.3793 162.774 14.4545ZM165.893 7.90909H168.993L171.978 13.5469H172.106L175.091 7.90909H178.191L173.416 16.3722V21H170.668V16.3722L165.893 7.90909Z" fill="#141414"/>
<g clip-path="url(#clip0_2015_626)">
<path fill-rule="evenodd" clip-rule="evenodd" d="M14.9879 2.59006L12.696 12.3198L17.9552 3.8192C18.1182 3.55593 18.484 3.51343 18.7028 3.73233L22.2677 7.29712C22.4866 7.51603 22.4441 7.88184 22.1808 8.04472L13.6802 13.304L23.41 11.0121C23.7113 10.9411 24 11.1698 24 11.4793V16.5207C24 16.8303 23.7113 17.0589 23.41 16.9879L13.6802 14.696L22.1808 19.9554C22.4441 20.1182 22.4866 20.484 22.2677 20.703L18.7028 24.2677C18.484 24.4866 18.1182 24.4441 17.9552 24.1808L12.696 15.6802L14.9879 25.41C15.0589 25.7113 14.8302 26 14.5207 26H9.47932C9.16974 26 8.94113 25.7113 9.01211 25.41L11.304 15.6802L6.04471 24.1808C5.88184 24.4441 5.51602 24.4866 5.29711 24.2677L1.73233 20.7028C1.51343 20.484 1.55593 20.1182 1.8192 19.9552L10.3197 14.696L0.590057 16.9879C0.288727 17.0589 0 16.8303 0 16.5207V11.4793C2.33897e-07 11.1698 0.288726 10.9411 0.590057 11.0121L10.3198 13.304L1.8192 8.04474C1.55593 7.88185 1.51343 7.51603 1.73233 7.29712L5.29711 3.73234C5.51602 3.51344 5.88184 3.55594 6.04471 3.81921L11.304 12.3198L9.01211 2.59006C8.94113 2.28873 9.16974 2 9.47932 2L14.5207 2C14.8303 2 15.0589 2.28873 14.9879 2.59006ZM12 15.3715C12.7574 15.3715 13.3715 14.7574 13.3715 14C13.3715 13.2426 12.7574 12.6286 12 12.6286C11.2426 12.6286 10.6286 13.2426 10.6286 14C10.6286 14.7574 11.2426 15.3715 12 15.3715Z" fill="#141414"/>
</g>
<defs>
<clipPath id="clip0_2015_626">
<rect width="24" height="24" fill="white" transform="translate(0 2)"/>
</clipPath>
</defs>
</svg>
