<svg width="28" height="28" viewBox="0 0 28 28" fill="none" xmlns="http://www.w3.org/2000/svg">
<g clip-path="url(#clip0_736_592)">
<path d="M3.4987 3.5H24.4987C24.8081 3.5 25.1049 3.62292 25.3237 3.84171C25.5424 4.0605 25.6654 4.35725 25.6654 4.66667V23.3333C25.6654 23.6428 25.5424 23.9395 25.3237 24.1583C25.1049 24.3771 24.8081 24.5 24.4987 24.5H3.4987C3.18928 24.5 2.89253 24.3771 2.67374 24.1583C2.45495 23.9395 2.33203 23.6428 2.33203 23.3333V4.66667C2.33203 4.35725 2.45495 4.0605 2.67374 3.84171C2.89253 3.62292 3.18928 3.5 3.4987 3.5ZM14.0687 13.6302L6.58803 7.27767L5.0772 9.05567L14.0839 16.7032L22.9284 9.04983L21.4024 7.28467L14.0699 13.6302H14.0687Z" fill="#141414"/>
</g>
<defs>
<clipPath id="clip0_736_592">
<rect width="28" height="28" fill="white"/>
</clipPath>
</defs>
</svg>
